
      <svg data-logo="logo" xmlns="http://www.w3.org/2000/svg" viewBox="0 0 341.0299987792969 42.525">
        <g id="logogram" transform="
    translate(0, 0.7624999999999993)
    rotate(0 25.5 20.5)
    
  "><path d="M13.0832 0.429993L23.4173 9.25886C24.0309 9.78301 24.3845 10.5522 24.3845 11.3623V18.0162L14.0503 9.18733C13.4368 8.66319 13.0832 7.894 13.0832 7.08386V0.429993Z" fill="#7B19D8"/><path d="M13.0832 40.43L23.4173 31.6011C24.0309 31.077 24.3845 30.3078 24.3845 29.4977V22.8438L14.0503 31.6727C13.4368 32.1968 13.0832 32.966 13.0832 33.7761V40.43Z" fill="#7B19D8"/><path d="M0.754395 9.74034L10.948 18.4005C11.4422 18.8204 12.0681 19.0507 12.7147 19.0507H20.9354L10.7669 10.3925C10.2723 9.9714 9.64557 9.74034 8.99786 9.74034H0.754395Z" fill="#7B19D8"/><path d="M0.754395 31.1196L10.8853 22.4645C11.3804 22.0415 12.0086 21.8093 12.6578 21.8093H20.9599L10.7663 30.4694C10.2721 30.8893 9.64625 31.1196 8.99957 31.1196H0.754395Z" fill="#7B19D8"/><path d="M38.4256 0.429993L28.0914 9.25886C27.4779 9.78301 27.1243 10.5522 27.1243 11.3623V18.0162L37.4584 9.18733C38.072 8.66319 38.4256 7.894 38.4256 7.08386V0.429993Z" fill="#7B19D8"/><path d="M38.4256 40.43L28.0914 31.6011C27.4779 31.077 27.1243 30.3078 27.1243 29.4977V22.8438L37.4584 31.6727C38.072 32.1968 38.4256 32.966 38.4256 33.7761V40.43Z" fill="#7B19D8"/><path d="M50.7544 9.74034L40.5608 18.4005C40.0666 18.8204 39.4407 19.0507 38.7941 19.0507H30.5733L40.7419 10.3925C41.2364 9.9714 41.8632 9.74034 42.5109 9.74034H50.7544Z" fill="#7B19D8"/><path d="M50.7544 31.1196L40.6235 22.4645C40.1284 22.0415 39.5002 21.8093 38.851 21.8093H30.5489L40.7425 30.4694C41.2367 30.8893 41.8625 31.1196 42.5092 31.1196H50.7544Z" fill="#7B19D8"/></g>
        <g id="logotype" transform="translate(57, 0.5)"><path fill="#00009c" d="M31.24 34L8.03 34L8.03 8.80L31.24 8.80L31.24 13.45L12.69 13.45L12.69 19.05L27.60 19.05L27.60 23.74L12.69 23.74L12.69 29.34L31.24 29.34L31.24 34ZM39.39 34L34.42 34L34.42 34L34.42 32.77L41.88 23.67L34.42 14.92L34.42 13.70L39.39 13.70L44.85 20.14L50.31 13.70L55.28 13.70L55.28 14.92L47.83 23.67L55.28 32.77L55.28 34L50.34 34L44.85 27.28L39.39 34ZM74.32 41.52L61.90 41.52L61.90 41.52L61.90 36.91L74.11 36.91Q74.28 36.91 74.41 36.78Q74.53 36.66 74.53 36.48L74.53 36.48L74.53 34L63.33 34Q62.04 34 60.93 33.34Q59.83 32.67 59.16 31.59Q58.50 30.50 58.50 29.17L58.50 29.17L58.50 13.77L63.09 13.77L63.09 28.99Q63.09 29.17 63.21 29.29Q63.33 29.41 63.51 29.41L63.51 29.41L74.11 29.41Q74.28 29.41 74.41 29.29Q74.53 29.17 74.53 28.99L74.53 28.99L74.53 13.77L79.12 13.77L79.12 36.70Q79.12 38.02 78.48 39.13Q77.86 40.23 76.75 40.88Q75.65 41.52 74.32 41.52L74.32 41.52ZM86.67 34L82.09 34L82.09 34L82.09 13.70L97.87 13.70Q99.20 13.70 100.31 14.36Q101.41 15.03 102.06 16.11Q102.70 17.20 102.70 18.53L102.70 18.53L102.70 34L98.12 34L98.12 18.70Q98.12 18.53 98.00 18.41Q97.87 18.28 97.70 18.28L97.70 18.28L87.09 18.28Q86.92 18.28 86.80 18.41Q86.67 18.53 86.67 18.70L86.67 18.70L86.67 34ZM110.40 34L110.40 34Q109.07 34 107.99 33.34Q106.90 32.67 106.24 31.59Q105.57 30.50 105.57 29.17L105.57 29.17L105.57 18.53Q105.57 17.20 106.24 16.11Q106.90 15.03 107.99 14.36Q109.07 13.70 110.40 13.70L110.40 13.70L121.36 13.70Q122.69 13.70 123.79 14.36Q124.89 15.03 125.54 16.11Q126.19 17.20 126.19 18.53L126.19 18.53L126.19 29.17Q126.19 30.50 125.54 31.59Q124.89 32.67 123.81 33.34Q122.72 34 121.36 34L121.36 34L110.40 34ZM110.58 29.41L110.58 29.41L121.19 29.41Q121.36 29.41 121.48 29.29Q121.60 29.17 121.60 28.99L121.60 28.99L121.60 18.70Q121.60 18.53 121.48 18.41Q121.36 18.28 121.19 18.28L121.19 18.28L110.58 18.28Q110.40 18.28 110.28 18.41Q110.16 18.53 110.16 18.70L110.16 18.70L110.16 28.99Q110.16 29.17 110.28 29.29Q110.40 29.41 110.58 29.41ZM133.75 34L133.75 34Q132.42 34 131.34 33.34Q130.25 32.67 129.59 31.59Q128.92 30.50 128.92 29.17L128.92 29.17L128.92 28.40L133.50 28.40L133.50 28.99Q133.50 29.17 133.63 29.29Q133.75 29.41 133.92 29.41L133.92 29.41L144.53 29.41Q144.70 29.41 144.83 29.29Q144.95 29.17 144.95 28.99L144.95 28.99L144.95 26.58Q144.95 26.41 144.83 26.28Q144.70 26.16 144.53 26.16L144.53 26.16L133.75 26.16Q132.42 26.16 131.34 25.49Q130.25 24.83 129.59 23.74Q128.92 22.66 128.92 21.33L128.92 21.33L128.92 18.53Q128.92 17.20 129.59 16.11Q130.25 15.03 131.34 14.36Q132.42 13.70 133.75 13.70L133.75 13.70L144.70 13.70Q146.07 13.70 147.16 14.36Q148.24 15.03 148.91 16.11Q149.57 17.20 149.57 18.53L149.57 18.53L149.57 19.30L144.95 19.30L144.95 18.70Q144.95 18.53 144.83 18.41Q144.70 18.28 144.53 18.28L144.53 18.28L133.92 18.28Q133.75 18.28 133.63 18.41Q133.50 18.53 133.50 18.70L133.50 18.70L133.50 21.12Q133.50 21.29 133.63 21.42Q133.75 21.54 133.92 21.54L133.92 21.54L144.70 21.54Q146.07 21.54 147.16 22.20Q148.24 22.87 148.91 23.95Q149.57 25.04 149.57 26.37L149.57 26.37L149.57 29.17Q149.57 30.50 148.91 31.59Q148.24 32.67 147.16 33.34Q146.07 34 144.70 34L144.70 34L133.75 34ZM189.05 34L168.78 34Q167.46 34 166.35 33.34Q165.25 32.67 164.59 31.57Q163.92 30.46 163.92 29.13L163.92 29.13L163.92 13.66Q163.92 12.33 164.59 11.23Q165.25 10.13 166.35 9.46Q167.46 8.80 168.78 8.80L168.78 8.80L189.05 8.80L189.05 13.45L169.77 13.45Q169.21 13.45 168.87 13.77Q168.54 14.08 168.54 14.68L168.54 14.68L168.54 28.12Q168.54 28.68 168.87 29.01Q169.21 29.34 169.77 29.34L169.77 29.34L189.05 29.34L189.05 34ZM197.35 34L197.35 34Q196.02 34 194.93 33.34Q193.85 32.67 193.18 31.59Q192.52 30.50 192.52 29.17L192.52 29.17L192.52 18.53Q192.52 17.20 193.18 16.11Q193.85 15.03 194.93 14.36Q196.02 13.70 197.35 13.70L197.35 13.70L208.30 13.70Q209.63 13.70 210.73 14.36Q211.84 15.03 212.48 16.11Q213.13 17.20 213.13 18.53L213.13 18.53L213.13 29.17Q213.13 30.50 212.48 31.59Q211.84 32.67 210.75 33.34Q209.67 34 208.30 34L208.30 34L197.35 34ZM197.52 29.41L197.52 29.41L208.13 29.41Q208.30 29.41 208.42 29.29Q208.55 29.17 208.55 28.99L208.55 28.99L208.55 18.70Q208.55 18.53 208.42 18.41Q208.30 18.28 208.13 18.28L208.13 18.28L197.52 18.28Q197.35 18.28 197.22 18.41Q197.10 18.53 197.10 18.70L197.10 18.70L197.10 28.99Q197.10 29.17 197.22 29.29Q197.35 29.41 197.52 29.41ZM220.76 34L220.76 34Q219.43 34 218.34 33.34Q217.26 32.67 216.59 31.59Q215.93 30.50 215.93 29.17L215.93 29.17L215.93 18.53Q215.93 17.20 216.59 16.11Q217.26 15.03 218.34 14.36Q219.43 13.70 220.76 13.70L220.76 13.70L231.72 13.70Q233.05 13.70 234.15 14.36Q235.25 15.03 235.90 16.11Q236.55 17.20 236.55 18.53L236.55 18.53L236.55 29.17Q236.55 30.50 235.90 31.59Q235.25 32.67 234.17 33.34Q233.08 34 231.72 34L231.72 34L220.76 34ZM220.94 29.41L220.94 29.41L231.54 29.41Q231.72 29.41 231.84 29.29Q231.96 29.17 231.96 28.99L231.96 28.99L231.96 18.70Q231.96 18.53 231.84 18.41Q231.72 18.28 231.54 18.28L231.54 18.28L220.94 18.28Q220.76 18.28 220.64 18.41Q220.52 18.53 220.52 18.70L220.52 18.70L220.52 28.99Q220.52 29.17 220.64 29.29Q220.76 29.41 220.94 29.41ZM244.84 34L240.25 34L240.25 34L240.25 7.05L244.84 7.05L244.84 21.54L248.45 21.54L255.69 13.70L260.59 13.70L260.59 14.96L252.50 23.85L260.56 32.74L260.56 34L255.69 34L248.45 26.16L244.84 26.16L244.84 34ZM278.27 41.52L265.84 41.52L265.84 41.52L265.84 36.91L278.06 36.91Q278.23 36.91 278.35 36.78Q278.48 36.66 278.48 36.48L278.48 36.48L278.48 34L267.28 34Q265.98 34 264.88 33.34Q263.78 32.67 263.11 31.59Q262.45 30.50 262.45 29.17L262.45 29.17L262.45 13.77L267.03 13.77L267.03 28.99Q267.03 29.17 267.15 29.29Q267.28 29.41 267.45 29.41L267.45 29.41L278.06 29.41Q278.23 29.41 278.35 29.29Q278.48 29.17 278.48 28.99L278.48 28.99L278.48 13.77L283.06 13.77L283.06 36.70Q283.06 38.02 282.43 39.13Q281.80 40.23 280.70 40.88Q279.60 41.52 278.27 41.52L278.27 41.52Z"/></g>
        
      </svg>
    